<?xml version="1.0" encoding="UTF-8"?>
<svg id="Layer_1" data-name="Layer 1" xmlns="http://www.w3.org/2000/svg" viewBox="0 0 212.33 196.52">
  <path d="M150.38,98.26c0-2.14-.16-4.24-.46-6.29l20.72-16.95-12.11-20.98-25.06,9.48c-3.28-2.58-6.93-4.71-10.87-6.29l-4.32-26.42h-24.23l-4.32,26.42c-3.93,1.58-7.59,3.71-10.87,6.29l-25.06-9.48-12.11,20.98,20.72,16.95c-.29,2.06-.46,4.16-.46,6.29s.16,4.23.46,6.29l-20.72,16.95,12.11,20.98,25.06-9.48c3.28,2.58,6.93,4.71,10.87,6.29l4.32,26.42h24.23l4.32-26.42c3.93-1.58,7.59-3.71,10.87-6.29l25.06,9.48,12.11-20.98-20.72-16.95c.29-2.06.45-4.15.45-6.29ZM106.16,116.67c-10.15,0-18.41-8.26-18.41-18.41s8.26-18.41,18.41-18.41,18.41,8.26,18.41,18.41-8.26,18.41-18.41,18.41Z" style="fill: #e3b7ff;"/>
</svg>