<?xml version="1.0" encoding="UTF-8"?>
<svg id="Layer_1" data-name="Layer 1" xmlns="http://www.w3.org/2000/svg" viewBox="0 0 212.33 196.52">
  <polygon points="103.91 115.4 91.33 141.55 122.33 141.55 110.3 115.4 103.91 115.4" style="fill: #ff5a31;"/>
  <rect x="85.9" y="141.55" width="41.85" height="14.83" style="fill: #ff5a31;"/>
  <rect x="82.84" y="156.38" width="47.98" height="7.41" style="fill: #ff5a31;"/>
  <path d="M151.52,49.07c1.72-9.64,2.31-16.34,2.31-16.34H59.83s.59,6.7,2.31,16.34h-20.92l.73,4.82c.06.39,1.52,9.77,6.46,19.66,6.77,13.57,16.85,21.57,29.14,23.17,6.93,12.24,16.4,21.33,29.28,21.33s22.48-9.2,29.42-21.56c11.63-2.03,21.17-9.92,27.67-22.94,4.94-9.89,6.4-19.27,6.46-19.66l.73-4.82h-19.59ZM51.33,57.46h12.46c1.99,9.2,4.87,19.75,8.96,29.44-13.39-5.28-19.26-21.32-21.43-29.44ZM141.2,86.2c3.94-9.5,6.73-19.76,8.67-28.74h11.13c-2.08,7.79-7.56,22.85-19.8,28.74Z" style="fill: #fcc72d;"/>
</svg>