<?xml version="1.0" encoding="UTF-8"?>
<svg id="Layer_1" data-name="Layer 1" xmlns="http://www.w3.org/2000/svg" viewBox="0 0 169.41 147.95">
  <defs>
    <style>
      .cls-1 {
        fill: #ff5b23;
      }

      .cls-2 {
        fill: #f2bc06;
      }
    </style>
  </defs>
  <path class="cls-1" d="M145.63,106.48c-3.84,1.45-8.39,2.74-13.51,3.83-11.9,2.57-26.85,4.1-43.1,4.1-38.79,0-70.23-8.7-70.23-19.45,0-1.06.31-2.11.91-3.13.65-.81,1.34-1.65,2.07-2.5,6.03-7.04,14.3-15.15,17.78-18.96,5.28-5.76,11.39-14.18,26.7-16.39,1.58-.22,3.23-.29,4.93-.22,18.82.82,44.62,18.87,64.82,26.73,0,0,.01,0,.02,0,3.26,1.26,6.38,2.27,9.29,2.88.11.03.21.05.31.07v.09c.03,4.37.01,16.55,0,22.93Z"/>
  <path class="cls-2" d="M159.25,94.96c0,4.32-5.05,8.3-13.62,11.52-3.84,1.45-8.39,2.74-13.51,3.83-24.01-2.41-65.83-12.37-77.15-32.36-1.97-3.5-3.02-7.29-2.88-11.41.57-8.05,8.54-12.38,19.08-12.77,4.89-.19,10.34.47,15.86,2.02,6.85,1.92,40.04,18.77,57.77,27.37.17.09.33.16.5.24.06.03.13.06.19.1.04.02.07.03.11.06,3.1,1.5,7.26,3.59,11.18,6.31,1.59,1.62,2.45,3.33,2.45,5.1Z"/>
</svg>