<?xml version="1.0" encoding="UTF-8"?>
<svg id="Layer_1" data-name="Layer 1" xmlns="http://www.w3.org/2000/svg" viewBox="0 0 212.33 196.52">
  <path d="M113.83,27.53c-17.01,0-30.81,13.8-30.81,30.81,0,27.15,30.81,49.76,30.81,49.76,0,0,30.8-23.88,30.8-49.76,0-17.01-13.79-30.81-30.8-30.81ZM114.31,65.14c-5.38,0-9.74-4.36-9.74-9.74s4.36-9.75,9.74-9.75,9.75,4.36,9.75,9.75-4.36,9.74-9.75,9.74Z" style="fill: #ff5a31;"/>
  <g>
    <path d="M43.75,160.19c3.69,1.24,8.06,2.34,12.96,3.28,11.42,2.2,25.77,3.51,41.37,3.51,37.23,0,67.4-7.45,67.4-16.66,0-.91-.29-1.8-.87-2.68-.62-.69-1.28-1.41-1.99-2.14-5.79-6.03-13.73-18.99-17.07-22.25-5.07-4.93-10.93-12.15-25.62-14.04-1.52-.19-3.1-.25-4.73-.18-18.07.7-42.83,22.18-62.21,28.91,0,0-.01,0-.02,0-3.13,1.08-6.12,1.94-8.92,2.47-.1.02-.2.04-.29.06v.07c-.03,3.74-.01,14.17,0,19.64Z" style="fill: #fcb900;"/>
    <path d="M30.68,150.33c0,3.7,4.85,7.1,13.07,9.86,3.69,1.24,8.06,2.34,12.96,3.28,23.05-2.06,63.18-16.61,74.04-33.73,1.89-2.99,2.9-6.25,2.76-9.77-.55-6.89-8.19-10.6-18.31-10.93-4.69-.16-9.93.41-15.22,1.73-6.57,1.64-38.43,22.09-55.45,29.45-.16.07-.32.14-.48.21-.06.03-.12.05-.18.08-.03.01-.07.03-.11.05-2.97,1.29-6.97,3.08-10.73,5.4-1.53,1.39-2.35,2.85-2.35,4.37Z" style="fill: #fcc72d;"/>
  </g>
</svg>