<?xml version="1.0" encoding="UTF-8"?>
<svg id="Layer_1" data-name="Layer 1" xmlns="http://www.w3.org/2000/svg" viewBox="0 0 212.33 196.52">
  <path d="M180.42,41.18c-1.01-7.78-10.44-7.01-19.19-9.6-.95-.28-1.84-.49-2.68-.64l-2.17-4.87c-6.93,3.32-11.92,8.01-14.81,13.94-5.26,10.79,3.14,24.16-.81,33.7-1.64,3.97-6.4,5.26-12.19,1.29-1.23-1.41-2.55-2.74-3.99-3.95-.58-.49-1.2-1.18-1.88-2.02-5.1-6.34-13.22-21.1-31.3-21.81-10.05.23-18.02,10.95-23.1,19.94-3.65,6.45-5.81,12-6.19,12.16-18.68,7.69-15.94,39.57-15.94,39.57h.03s-.03,0-.03,0l.42,51.54h5.83l.42-27.64,4.08-23.38h.1s0,0,0,0l.82,51.02h4.58l4.6-50.53h.05s1.95-1.01,1.95-1.01c0,0,40.28,6.48,51.67-2.59.54-.43,1.3,1.97,1.51,2.7,0,0,0,0,0,0l.42,51.43h5.83l.42-27.64,5.97-19.32-.97,46.97h4.58l7.11-65.7c1.78-1.58,3.54-3.58,5.23-6.16,6.79-10.34,6.82-18.86,5.62-25.06-1.18-6.08-3.77-15.57-3.83-22.12,5.25,2.51,13.07-1.49,18.27-1.38,5.63.13,11.25,4.02,9.57-8.85Z" style="fill: #fcc72d;"/>
  <path d="M122.71,69.03v15.65c0,15.02-12.18,27.2-27.2,27.2s-27.2-12.18-27.2-27.2v-17.52c5.08-8.99,13.05-19.71,23.1-19.94,18.08.71,26.2,15.46,31.3,21.81Z" style="fill: #e3b7ff;"/>
</svg>