<?xml version="1.0" encoding="UTF-8"?>
<svg id="Layer_1" data-name="Layer 1" xmlns="http://www.w3.org/2000/svg" viewBox="0 0 239.6 207.69">

    <polygon fill="#f26641"
             points="45.91 160.38 70.54 122.7 117.9 114.91 146.32 58.07 193.69 160.38 45.91 160.38"/>
    <polygon fill="#f4c951"
             points="146.32 58.07 136.54 128.17 110.64 138.27 104.33 160.38 45.91 160.38 70.54 122.7 118.22 114.91 146.32 58.07"/>
    <path fill="#dad3b5"
          d="M101.41,87.05c.11,0,.21,0,.32-.01-2.91,2.87-6.91,4.64-11.31,4.64-8.9,0-16.11-7.22-16.11-16.12s7.21-16.11,16.11-16.11c4.41,0,8.4,1.76,11.31,4.64-.11-.01-.21-.01-.32-.01-6.35,0-11.49,5.14-11.49,11.48s5.14,11.49,11.49,11.49Z"/>
</svg>