<?xml version="1.0" encoding="UTF-8"?>
<svg id="Layer_1" data-name="Layer 1" xmlns="http://www.w3.org/2000/svg" viewBox="0 0 169.41 147.95">
  <defs>
    <style>
      .cls-1 {
        fill: #ff5b23;
      }

      .cls-2 {
        fill: #f2bc06;
      }
    </style>
  </defs>
  <path class="cls-1" d="M123.54,71.38c-3.31,1.25-7.22,2.36-11.62,3.3-10.24,2.21-23.11,3.53-37.09,3.53-33.39,0-60.44-7.49-60.44-16.74,0-.91.26-1.81.78-2.69.56-.7,1.15-1.42,1.78-2.15,5.19-6.06,12.31-13.04,15.31-16.31,4.55-4.96,9.8-12.21,22.98-14.11,1.36-.19,2.78-.25,4.24-.19,16.2.71,38.4,16.24,55.79,23.01,0,0,.01,0,.02,0,2.81,1.08,5.49,1.95,8,2.48.09.02.18.04.26.06v.07c.02,3.76.01,14.24,0,19.73Z"/>
  <path class="cls-2" d="M135.27,61.47c0,3.71-4.35,7.14-11.72,9.91-3.31,1.25-7.22,2.36-11.62,3.3-20.67-2.07-56.66-10.65-66.39-27.85-1.7-3.01-2.6-6.28-2.48-9.82.49-6.92,7.35-10.65,16.42-10.99,4.21-.16,8.9.41,13.65,1.74,5.89,1.65,34.46,16.15,49.72,23.55.15.07.29.14.43.21.06.03.11.05.17.08.03.01.06.03.1.05,2.67,1.29,6.25,3.09,9.62,5.43,1.37,1.4,2.11,2.87,2.11,4.39Z"/>
  <path class="cls-2" d="M52.04,89.19c3.31,1.25,7.22,2.36,11.62,3.3,10.24,2.21,23.11,3.53,37.09,3.53,33.39,0,60.44-7.49,60.44-16.74,0-.91-.26-1.81-.78-2.69-.56-.7-1.15-1.42-1.78-2.15-5.19-6.06-12.31-13.04-15.31-16.31-4.55-4.96-9.8-12.21-22.98-14.11-1.36-.19-2.78-.25-4.24-.19-16.2.71-38.4,16.24-55.79,23.01,0,0-.01,0-.02,0-2.81,1.08-5.49,1.95-8,2.48-.09.02-.18.04-.26.06v.07c-.02,3.76-.01,14.24,0,19.73Z"/>
  <path class="cls-1" d="M40.32,79.28c0,3.71,4.35,7.14,11.72,9.91,3.31,1.25,7.22,2.36,11.62,3.3,20.67-2.07,56.66-10.65,66.39-27.85,1.7-3.01,2.6-6.28,2.48-9.82-.49-6.92-7.35-10.65-16.42-10.99-4.21-.16-8.9.41-13.65,1.74-5.89,1.65-34.46,16.15-49.72,23.55-.15.07-.29.14-.43.21-.06.03-.11.05-.17.08-.03.01-.06.03-.1.05-2.67,1.29-6.25,3.09-9.62,5.43-1.37,1.4-2.11,2.87-2.11,4.39Z"/>
  <path class="cls-1" d="M114.3,108.44c-2.9,1.09-6.32,2.06-10.17,2.89-8.96,1.94-20.22,3.09-32.46,3.09-29.21,0-52.89-6.55-52.89-14.65,0-.8.23-1.59.69-2.35.49-.61,1.01-1.24,1.56-1.89,4.54-5.3,10.77-11.41,13.39-14.28,3.98-4.34,8.58-10.68,20.1-12.34,1.19-.17,2.43-.22,3.71-.16,14.17.62,33.6,14.21,48.81,20.13,0,0,.01,0,.02,0,2.46.95,4.8,1.71,7,2.17.08.02.16.04.23.05v.07c.02,3.29.01,12.46,0,17.27Z"/>
  <path class="cls-2" d="M124.56,99.76c0,3.25-3.81,6.25-10.26,8.67-2.9,1.09-6.32,2.06-10.17,2.89-18.08-1.81-49.57-9.32-58.09-24.37-1.49-2.63-2.27-5.49-2.17-8.59.43-6.06,6.43-9.32,14.37-9.61,3.68-.14,7.79.36,11.94,1.52,5.16,1.44,30.15,14.13,43.51,20.61.13.06.25.12.38.18.05.03.1.05.14.07.03.01.05.03.09.05,2.33,1.13,5.47,2.7,8.42,4.75,1.2,1.22,1.84,2.51,1.84,3.84Z"/>
</svg>