<?xml version="1.0" encoding="UTF-8"?>
<svg id="Layer_1" data-name="Layer 1" xmlns="http://www.w3.org/2000/svg" viewBox="0 0 239.6 207.69">

    <g>
        <path fill="#f4c951"
              d="M164.23,127.63h-23.7s-.02-.09-.07-.23c-.24-.83-1.1-3.56-1.71-3.07-12.93,10.29-58.63,2.94-58.63,2.94l-2.21,1.15h-.06s-11.36-.55-11.36-.55h-.11s-12.19-.6-12.19-.6c0,0-3.11-36.18,18.09-44.9.44-.18,2.89-6.49,7.03-13.8,5.77-10.2,14.81-22.36,26.22-22.63,20.52.8,29.73,17.55,35.52,24.74.76.95,1.47,1.73,2.13,2.29,1.64,1.38,3.15,2.89,4.55,4.5,8.57,9.87,12.7,23.4,14.68,33.92.18.96.35,1.9.49,2.81,1.28,7.85,1.35,13.43,1.35,13.43Z"/>
        <polygon fill="#f4c951" points="166.99 111.06 169.8 185.76 164.6 185.76 155.22 111.95 166.99 111.06"/>
        <polygon fill="#f4c951"
                 points="140.47 127.27 156.41 127.27 137.14 154.39 129.4 185.76 122.78 185.76 129.78 154.31 140.47 127.27"/>
        <polygon fill="#f4c951"
                 points="77.96 127.27 75.38 155.58 82.62 185.76 77.42 185.76 66.93 154.88 66.48 127.27 77.96 127.27"/>
        <polygon fill="#f4c951"
                 points="54.19 127.27 66.48 127.27 52.68 154.39 61.28 185.76 54.66 185.76 45.32 153.53 54.19 127.27"/>
        <path fill="#f4c951"
              d="M146.5,119.25l.92-41.97c6.7,4.74,12.22,3.28,14.11-1.29,4.48-10.82-5.05-25.99.92-38.24,3.28-6.73,8.94-12.06,16.81-15.82l6.32,14.18c-4.71,2.25-7.96,5.17-9.67,8.68-2.94,6.03,1.62,21.88,3.39,30.98,1.37,7.04,1.33,16.71-6.38,28.44-8.8,13.39-19.17,13.18-26.41,15.03Z"/>
        <path fill="#f4c951"
              d="M168.7,39.07c0,7.17-3.46,5.02,5.12,10.96,5.92,4.1,15.57-1.06,21.85-.92,6.39.14,12.76,4.56,10.86-10.05-1.15-8.82-11.84-7.95-21.77-10.89-13.02-3.85-16.05,3.72-16.05,10.89Z"/>
    </g>
    <path fill="#dcb9fe"
          d="M141.04,70.68v17.76c0,17.05-13.82,30.86-30.86,30.86s-30.87-13.82-30.87-30.86v-19.88c5.77-10.2,14.81-22.36,26.22-22.63,20.52.8,29.73,17.55,35.52,24.74Z"/>
</svg>