<?xml version="1.0" encoding="UTF-8"?>
<svg id="Layer_1" data-name="Layer 1" xmlns="http://www.w3.org/2000/svg" viewBox="0 0 239.6 207.69">

    <path fill="#dad3b5"
          d="M82.8,160.98l-17.23-18.42,87.85-80.93c4.7-4.4,10.3-7.64,16.09-9.31l17.86-5.17-6.36,17.48c-2.06,5.67-5.67,11.04-10.37,15.43l-87.85,80.93Z"/>
    <path d="M187.37,47.14l-113.19,104.63-8.61-9.21,87.84-80.92c4.71-4.41,10.3-7.63,16.1-9.31l17.86-5.18Z"/>
    <rect fill="#f26641" x="47.46" y="148.91" width="51.7" height="7.36"
          transform="translate(134.69 -5.18) rotate(46.92)"/>
    <rect fill="#f26641" x="49.47" y="127.54" width="11.4" height="11.4"
          transform="translate(4.49 -1.77) rotate(1.92)"/>
    <rect fill="#f26641" x="85.44" y="165.89" width="11.4" height="11.4" transform="translate(5.8 -2.96) rotate(1.92)"/>
    <polygon fill="#f26641" points="61.15 179.18 45.37 178.65 45.9 162.87 60.56 164.43 61.15 179.18"/>
    <polygon fill="#f26641" points="48.95 164.04 60.49 176.45 78.16 160.06 66.62 147.65 48.95 164.04"/>
    <polygon fill="#f26641" points="81.2 166.42 72.41 165.4 60.97 152.91 61.49 145.33 81.2 166.42"/>
    <path fill="#dcb9fe"
          d="M39.22,88.49c.76,0,4.55.06,7.66,3.09,3.25,3.16,3.3,7.17,3.3,7.88-.03-.66-.11-4.68,3.09-7.88.46-.46,3.36-3.26,7.88-3.09-.72.01-4.59,0-7.73-3.09-3.23-3.17-3.24-7.19-3.23-7.88.05.39.64,5.31-3.16,8.67-3.25,2.87-7.22,2.38-7.8,2.3Z"/>
    <path fill="#dcb9fe"
          d="M71.65,50.87c1.54,0,9.28.12,15.63,6.29,6.63,6.45,6.74,14.63,6.73,16.07-.05-1.34-.23-9.54,6.29-16.07.95-.95,6.84-6.65,16.07-6.29-1.46.02-9.36,0-15.77-6.3-6.6-6.47-6.61-14.67-6.59-16.06.11.8,1.31,10.84-6.44,17.68-6.64,5.86-14.73,4.85-15.92,4.68Z"/>
    <path fill="#dcb9fe"
          d="M116.37,155.87c1.54,0,9.28.12,15.63,6.29,6.63,6.45,6.74,14.63,6.73,16.07-.05-1.34-.23-9.54,6.29-16.07.95-.95,6.84-6.65,16.07-6.29-1.46.02-9.36,0-15.77-6.3-6.6-6.47-6.61-14.67-6.59-16.06.11.8,1.31,10.84-6.44,17.68-6.64,5.86-14.73,4.85-15.92,4.68Z"/>
    <path fill="#dcb9fe"
          d="M176.41,110.9c.76,0,4.55.06,7.66,3.09,3.25,3.16,3.3,7.17,3.3,7.88-.03-.66-.11-4.68,3.09-7.88.46-.46,3.36-3.26,7.88-3.09-.72.01-4.59,0-7.73-3.09-3.23-3.17-3.24-7.19-3.23-7.88.05.39.64,5.31-3.16,8.67-3.25,2.87-7.22,2.38-7.8,2.3Z"/>
</svg>