<?xml version="1.0" encoding="UTF-8"?>
<svg id="Layer_1" data-name="Layer 1" xmlns="http://www.w3.org/2000/svg" viewBox="0 0 239.6 207.69">
  
    <polygon fill="#b3b3b3" points="119.68 87.43 188.3 62.06 120.91 40.92 51.29 62.01 119.68 87.43"/>
    <polygon points="188.3 141.99 119.68 167.41 119.68 87.43 188.3 62.01 188.3 141.99"/>
    <polygon points="51.29 141.99 119.92 167.41 119.92 87.43 51.29 62.01 51.29 141.99"/>
    <polygon fill="#517f44" points="188.3 96.33 119.68 121.07 119.68 104.58 188.3 79.84 188.3 96.33"/>
    <polygon fill="#517f44" points="51.29 96.33 119.92 121.07 119.92 104.58 51.29 79.84 51.29 96.33"/>
    <line fill="none" stroke="#000" stroke-miterlimit="10" stroke-width=".25px" x1="119.68" y1="87.43" x2="119.68"
          y2="167.41"/>
    <g>
        <polygon points="188.3 62.06 119.68 87.43 119.68 81.67 182.89 60.25 188.3 62.06"/>
        <polygon points="51.29 62.01 119.92 87.43 119.92 81.67 57.79 59.79 51.29 62.01"/>
    </g>
    <g>
        <polygon points="187.83 61.91 119.68 40.28 119.68 46.04 182.64 63.99 187.83 61.91"/>
        <polygon points="51.29 62.01 119.92 40.28 119.92 46.04 57.79 64.24 51.29 62.01"/>
    </g>
</svg>