<?xml version="1.0" encoding="UTF-8"?>
<svg id="Layer_1" data-name="Layer 1" xmlns="http://www.w3.org/2000/svg" viewBox="0 0 150.21 138.92">
  <defs>
    <style>
      .cls-1 {
        fill: #3a39ff;
      }

      .cls-2 {
        fill: #f2bc06;
      }
    </style>
  </defs>
  <polygon class="cls-2" points="17.01 14.33 38.85 19.98 52.02 42.19 65.58 47.46 89.67 28.64 106.24 45.95 134.47 97.91 96.82 122.38 89.67 110.71 68.96 110.33 54.28 118.61 28.31 81.72 19.65 38.05 12.87 34.28 15.13 24.49 17.01 14.33"/>
  <path class="cls-1" d="M107.72,34.2c-8.96,0-16.23,7.27-16.23,16.23,0,14.3,16.23,26.21,16.23,26.21,0,0,16.22-12.58,16.22-26.21,0-8.96-7.26-16.23-16.22-16.23ZM107.97,54c-2.83,0-5.13-2.3-5.13-5.13s2.3-5.14,5.13-5.14,5.14,2.3,5.14,5.14-2.3,5.13-5.14,5.13Z"/>
</svg>