<?xml version="1.0" encoding="UTF-8"?>
<svg id="Layer_1" data-name="Layer 1" xmlns="http://www.w3.org/2000/svg" viewBox="0 0 150.21 138.92">
  <defs>
    <style>
      .cls-1 {
        fill: #f2bc06;
      }
    </style>
  </defs>
  <polygon class="cls-1" points="25.39 25.53 19.36 19.88 22.38 18 27.27 19.88 44.21 23.65 57.39 45.86 70.94 51.13 72.07 57.15 82.24 53.76 78.47 48.12 84.87 40.21 89.76 39.46 90.52 34.19 95.04 32.31 111.6 49.62 111.6 68.45 116.49 72.96 124.78 71.46 128.92 82.75 139.83 101.58 102.19 126.05 95.04 114.38 74.33 114 59.65 122.28 52.49 107.98 54.38 101.2 50.61 98.56 47.6 101.58 33.67 85.39 25.01 41.72 18.24 37.95 20.49 28.16 25.39 25.53"/>
</svg>