<?xml version="1.0" encoding="UTF-8"?>
<svg id="Layer_1" data-name="Layer 1" xmlns="http://www.w3.org/2000/svg" viewBox="0 0 177.88 166.02">
  <defs>
    <style>
      .cls-1 {
        fill: #ff5b23;
      }

      .cls-2 {
        fill: #f2bc06;
      }
    </style>
  </defs>
  <path class="cls-1" d="M97.6,28.43c-14.67,0-26.57,11.9-26.57,26.57,0,23.42,26.57,42.92,26.57,42.92,0,0,26.56-20.59,26.56-42.92,0-14.67-11.89-26.57-26.56-26.57ZM98.01,60.86c-4.64,0-8.4-3.76-8.4-8.4s3.76-8.41,8.4-8.41,8.41,3.76,8.41,8.41-3.76,8.4-8.41,8.4Z"/>
  <path class="cls-2" d="M21.8,119c42.9,32.17,85.79-32.17,128.69,0v-16.09c-42.9-32.17-85.79,32.17-128.69,0,0,5.36,0,10.72,0,16.09Z"/>
</svg>