<?xml version="1.0" encoding="UTF-8"?>
<svg id="Layer_1" data-name="Layer 1" xmlns="http://www.w3.org/2000/svg" viewBox="0 0 289.69 69.46">
  <defs>
    <style>
      .cls-1 {
        fill: #f2bc06;
      }
    </style>
  </defs>
  <path class="cls-1" d="M154.8,54.77h-4c0-3.44-2.8-6.24-6.24-6.24s-6.24,2.8-6.24,6.24h-4c0-5.64,4.59-10.24,10.24-10.24s10.24,4.59,10.24,10.24Z"/>
  <path class="cls-1" d="M163.07,54.77h-4c0-8-6.51-14.5-14.5-14.5s-14.5,6.51-14.5,14.5h-4c0-10.2,8.3-18.5,18.5-18.5s18.5,8.3,18.5,18.5Z"/>
  <path class="cls-1" d="M171.33,54.77h-4c0-12.55-10.21-22.77-22.77-22.77s-22.77,10.21-22.77,22.77h-4c0-14.76,12.01-26.77,26.77-26.77s26.77,12.01,26.77,26.77Z"/>
  <path class="cls-1" d="M179.6,54.77h-4c0-17.11-13.92-31.03-31.03-31.03s-31.04,13.92-31.04,31.03h-4c0-19.32,15.72-35.03,35.04-35.03s35.03,15.72,35.03,35.03Z"/>
  <path class="cls-1" d="M187.87,54.77h-4c0-21.67-17.63-39.3-39.3-39.3s-39.3,17.63-39.3,39.3h-4c0-23.88,19.42-43.3,43.3-43.3s43.3,19.42,43.3,43.3Z"/>
  <path class="cls-1" d="M240.64,54.77h-4c0-3.44-2.8-6.24-6.24-6.24s-6.24,2.8-6.24,6.24h-4c0-5.64,4.59-10.24,10.24-10.24s10.24,4.59,10.24,10.24Z"/>
  <path class="cls-1" d="M248.9,54.77h-4c0-8-6.51-14.5-14.5-14.5s-14.5,6.51-14.5,14.5h-4c0-10.2,8.3-18.5,18.5-18.5s18.5,8.3,18.5,18.5Z"/>
  <path class="cls-1" d="M257.17,54.77h-4c0-12.55-10.21-22.77-22.77-22.77s-22.77,10.21-22.77,22.77h-4c0-14.76,12.01-26.77,26.77-26.77s26.77,12.01,26.77,26.77Z"/>
  <path class="cls-1" d="M265.43,54.77h-4c0-17.11-13.92-31.03-31.03-31.03s-31.03,13.92-31.03,31.03h-4c0-19.32,15.72-35.03,35.03-35.03s35.03,15.72,35.03,35.03Z"/>
  <path class="cls-1" d="M273.7,54.77h-4c0-21.67-17.63-39.3-39.3-39.3s-39.3,17.63-39.3,39.3h-4c0-23.88,19.42-43.3,43.3-43.3s43.3,19.42,43.3,43.3Z"/>
  <path class="cls-1" d="M68.73,54.77h-4c0-3.44-2.8-6.24-6.24-6.24s-6.24,2.8-6.24,6.24h-4c0-5.64,4.59-10.24,10.24-10.24s10.24,4.59,10.24,10.24Z"/>
  <path class="cls-1" d="M77,54.77h-4c0-8-6.51-14.5-14.5-14.5s-14.5,6.51-14.5,14.5h-4c0-10.2,8.3-18.5,18.5-18.5s18.5,8.3,18.5,18.5Z"/>
  <path class="cls-1" d="M85.26,54.77h-4c0-12.55-10.21-22.77-22.77-22.77s-22.77,10.21-22.77,22.77h-4c0-14.76,12.01-26.77,26.77-26.77s26.77,12.01,26.77,26.77Z"/>
  <path class="cls-1" d="M93.53,54.77h-4c0-17.11-13.92-31.03-31.03-31.03s-31.04,13.92-31.04,31.03h-4c0-19.32,15.72-35.03,35.04-35.03s35.03,15.72,35.03,35.03Z"/>
  <path class="cls-1" d="M101.79,54.77h-4c0-21.67-17.63-39.3-39.3-39.3S19.19,33.1,19.19,54.77h-4c0-23.88,19.42-43.3,43.3-43.3s43.3,19.42,43.3,43.3Z"/>
</svg>