<?xml version="1.0" encoding="UTF-8"?>
<svg id="Layer_1" data-name="Layer 1" xmlns="http://www.w3.org/2000/svg" viewBox="0 0 722.93 733.23">
    <circle fill="#ade6ed" cx="344.16" cy="259.61" r="202.24"/>
    <g>
        <path fill="#3a39ff"
              d="M594.54,366.82v264.6c0,10.45-8.47,18.92-18.92,18.92H110.13c-10.45,0-18.92-8.47-18.92-18.92v-264.6c0-6.16,2.64-11.7,6.87-15.55,3.73-3.41,8.72-5.49,14.17-5.49h461.25c5.5,0,10.51,2.11,14.26,5.55,4.17,3.85,6.78,9.36,6.78,15.49Z"/>
        <path fill="#6161ff"
              d="M587.76,645.98l-221.29-215.67c-11.59-10.69-29.42-10.8-41.14-.25l-227.25,215.98c3.73,3.41,8.72,5.49,14.17,5.49h461.25c5.5,0,10.51-2.11,14.26-5.55Z"/>
        <path fill="#8988ff"
              d="M587.76,351.33l-221.29,194.43c-11.59,10.69-29.42,10.8-41.14.25l-227.25-194.75c3.73-3.41,8.72-5.49,14.17-5.49h461.25c5.5,0,10.51,2.11,14.26,5.55Z"/>
        <ellipse fill="#f26641" cx="583.79" cy="348.15" rx="51.82" ry="50.33"/>
        <path fill="#fff"
              d="M573.26,368.32v-3.77l7.81-2.59v-28.59h-8.56v-3.77l14.88-4.48h6.09v36.92l7.44,2.43v3.85h-27.65Z"/>
    </g>
</svg>