<?xml version="1.0" encoding="UTF-8"?>
<svg id="Layer_1" data-name="Layer 1" xmlns="http://www.w3.org/2000/svg" viewBox="0 0 1125 1320.52">
    <polygon fill="#fff"
             points="298.52 230.81 425.82 263.73 502.64 393.23 581.65 423.96 722.12 314.22 818.69 415.18 983.31 718.07 763.82 860.73 722.12 792.69 601.4 790.5 515.81 838.78 364.36 623.69 313.88 369.09 274.37 347.14 287.54 290.07 298.52 230.81"/>
    <polygon fill="#fff"
             points="163.39 1043.81 264.41 1061.49 350.29 1220.61 436.16 1254.7 519.5 1173.88 544.76 1175.14 578.86 1085.48 597.8 1029.92 519.5 979.41 510.66 863.23 371.72 661.2 341.41 673.82 230.32 835.44 234.11 887.22 183.59 909.95 181.07 1000.87 193.7 1009.71 189.91 1022.34 160.86 1026.13 163.39 1043.81"/>
    <circle fill="#f26641" cx="812.43" cy="596.51" r="37.06"/>
    <path fill="#6060ea"
          d="M816.97,201.39c-83.21,0-150.7,67.49-150.7,150.7,0,132.82,150.7,243.42,150.7,243.42,0,0,150.66-116.81,150.66-243.42,0-83.21-67.45-150.7-150.66-150.7ZM819.28,385.36c-26.33,0-47.66-21.33-47.66-47.66s21.33-47.7,47.66-47.7,47.7,21.33,47.7,47.7-21.33,47.66-47.7,47.66Z"/>
    <circle fill="#f26641" cx="582.76" cy="628.56" r="24.82"/>
    <circle fill="#f26641" cx="372.55" cy="789.12" r="24.82"/>
    <rect fill="#f26641" x="329.93" y="955.95" width="96.71" height="22"
          transform="translate(-572.94 550.7) rotate(-45)"/>
    <rect fill="#f26641" x="367.29" y="918.59" width="22" height="96.71"
          transform="translate(-572.93 550.7) rotate(-45)"/>
</svg>