<?xml version="1.0" encoding="UTF-8"?>
<svg id="Layer_1" data-name="Layer 1" xmlns="http://www.w3.org/2000/svg" viewBox="0 0 1125 1083.35">
    <path fill="none" d="M.06,619.72s-.06.01-.08.01"/>
    <path fill="#f26641"
          d="M714.05,83.82c-64.17,0-116.21,52.05-116.21,116.21,0,96.29,102.71,177.44,115.01,186.82.78.59,1.2.9,1.2.9,0,0,.29-.22.84-.67,10.46-8.34,115.35-94.28,115.35-187.05,0-64.16-52.02-116.21-116.19-116.21ZM715.83,225.69c-20.3,0-36.75-16.45-36.75-36.76s16.45-36.78,36.75-36.78,36.79,16.45,36.79,36.78-16.45,36.76-36.79,36.76Z"/>
    <path fill="#f26641"
          d="M1125.26,491.22l-1.4,221.12v.99s-.05,7-.05,7l-804.17-37.34c-7.01-7.85-13.01-15.98-17.89-24.38-8.81-15.14-14.03-31.18-15.06-48.17,2.21-25.8,19.23-44.55,46.15-57.06C189.68,585.45,22.23,615.74.06,619.72c-.07-6-.14-12.29-.19-18.69,0-.44,0-.89,0-1.33-.23-29.1-.18-60.4.73-78.32.02-.33.03-.64.04-.95.02-.24.03-.48.04-.71.01-.18.02-.35.03-.52.04-.72.08-1.37.12-1.94,69.57-5.14,179.14-30.72,295.95-57.51,25.5-5.86,51.35-11.76,77.21-17.52,20.41-4.56,40.82-9.02,61.06-13.29,8.46-1.79,16.88-3.54,25.27-5.25,115.3-23.56,222.85-39.58,290.93-29.44.85.13,1.71.26,2.57.39,163.88,24.84,371.44,96.58,371.44,96.58Z"/>
    <path fill="#f2bc06"
          d="M-.02,619.73c-.05-6.11-.09-12.39-.11-18.7.01-.44.01-.89,0-1.33-.1-31.99.15-64.4.73-78.32.02-.33.03-.64.04-.95.02-.24.03-.48.04-.71.01-.18.02-.35.03-.52.04-.72.08-1.37.12-1.94,57.67-9.35,178.04-33.85,295.5-58.58,26.28-5.52,52.41-11.07,77.66-16.45,21.1-4.51,41.59-8.9,61.03-13.08,8.65-1.87,17.1-3.69,25.3-5.46,66.29-14.33,116.62-25.44,131.02-28.77,42.28-9.79,84.56-12.16,121.51-8.07.68.07,1.36.15,2.04.23,13.84,1.62,26.91,4.16,38.93,7.56,43.24,12.22,72.84,35.56,75.58,67.63-3.09,51.31-54.04,90.44-129.57,120.09-.78.3-1.57.61-2.36.91-105.74,40.96-258.52,63.64-395.72,75.34-8.81-15.14-14.03-31.18-15.06-48.17,2.21-25.8,19.23-44.55,46.15-57.06C189.68,585.45,22.23,615.74.06,619.72H-.02Z"/>
    <path fill="#6060ea"
          d="M1124.72,831.38v.12c-.04,26.76-.1,47.03-.1,47.03h-.74s-133.09-1.68-133.09-1.68c-207.87-15.24-561.87-71.29-671.15-193.86-7.01-7.85-13.01-15.98-17.89-24.38-8.81-15.14-14.03-31.18-15.06-48.17,2.21-25.8,19.23-44.55,46.15-57.06,20.44-4.57,40.38-9.18,59.33-13.76,69.19-16.71,183.82,7.95,305.3,43.65,158.13,46.48,327.87,111.67,424.13,128.67.76.14,1.51.27,2.26.4.25.04.51.09.76.13.09,9.37.14,24.99.15,42.99v.43c.02,24-.01,52.19-.05,75.49Z"/>
    <path fill="#dcb9fe"
          d="M1124.72,831.38v.12c-.17,18.61-.45,35.44-.84,47.02-.02.69-.05,1.35-.07,2-26.46,1.69-73.82.66-133.02-3.67-207.87-15.24-561.87-71.29-671.15-193.86-7.01-7.85-13.01-15.98-17.89-24.38-8.81-15.14-14.03-31.18-15.06-48.17,2.21-25.8,19.23-44.55,46.15-57.06,48.65-22.58,129.66-24.73,214.24-11.01,24.66,4,82.12,19.5,152.75,39.99,139.78,40.54,331.14,100.59,421.77,129.58.75.24,1.48.48,2.21.71.02.22.03.44.04.68.45,7.01.76,22.74.92,42.13v.43c.19,22.86.17,50.74-.05,75.49Z"/>
    <path fill="#ade6ed"
          d="M361.76,345.59c-40.78,0-73.86,33.08-73.86,73.86,0,13.69,3.27,26.9,8.43,39.23.15.35.3.71.45,1.07,19.63,45.72,64.98,79.01,64.98,79.01,0,0,66.32-51.41,73.26-109.61l.03-.21c.37-3.15.56-6.31.56-9.49,0-40.78-33.07-73.86-73.85-73.86ZM362.89,389.02c12.93,0,23.38,10.45,23.38,23.38s-10.45,23.36-23.38,23.36-23.36-10.46-23.36-23.36,10.46-23.38,23.36-23.38Z"/>
</svg>