<?xml version="1.0" encoding="UTF-8"?>
<svg id="Layer_1" data-name="Layer 1" xmlns="http://www.w3.org/2000/svg" viewBox="0 0 1012.06 733.23">
  <defs>
    <style>
      .cls-1 {
        fill: #f4c951;
      }

      .cls-2 {
        fill: #f2bc06;
      }
    </style>
  </defs>
  <path class="cls-2" d="M158.47,653.42c23.96,6.03,52.32,11.39,84.18,15.95,74.15,10.7,167.38,17.06,268.64,17.06,241.79,0,437.74-36.2,437.74-80.92,0-4.42-1.91-8.76-5.68-13-4.04-3.38-8.34-6.86-12.91-10.42-37.58-29.31-89.15-92.26-110.84-108.1-32.92-23.96-71-59.01-166.4-68.21-9.85-.93-20.1-1.22-30.71-.9-117.32,3.41-278.13,107.74-404.02,140.46-.04.04-.09.04-.13.04-20.32,5.24-39.76,9.45-57.91,12-.67.11-1.29.22-1.91.29v.36c-.18,18.17-.09,68.85-.04,95.39Z"/>
  <path class="cls-1" d="M73.59,605.51c0,17.96,31.51,34.52,84.89,47.91,23.96,6.03,52.32,11.39,84.18,15.95,149.67-10.02,410.32-80.69,480.83-163.87,12.29-14.55,18.81-30.35,17.93-47.48-3.55-33.47-53.2-51.5-118.92-53.12-30.48-.79-64.47,1.97-98.86,8.4-42.69,7.97-249.56,107.3-360.09,143.08-1.06.36-2.09.68-3.11,1-.4.14-.8.25-1.2.4-.22.07-.44.14-.71.25-19.3,6.25-45.26,14.94-69.67,26.25-9.94,6.75-15.26,13.86-15.26,21.23Z"/>
</svg>