<?xml version="1.0" encoding="UTF-8"?>
<svg id="Layer_1" data-name="Layer 1" xmlns="http://www.w3.org/2000/svg" viewBox="0 0 1125 981.7">
  <defs>
    <style>
      .cls-1 {
        fill: #ff5b23;
      }

      .cls-2 {
        fill: #f26641;
      }

      .cls-3 {
        fill: #3a39ff;
      }

      .cls-4 {
        fill: #dcb9fe;
      }

      .cls-5 {
        fill: #f2bc06;
      }

      .cls-6 {
        fill: #dcb9fe;
      }
    </style>
  </defs>
  <circle class="cls-5" cx="955.27" cy="166.8" r="73.82"/>
  <path class="cls-2" d="M1132.03,551.13l-1.4,221.12c-95.94-16.39-267.36-82.36-426.87-129.21-121.3-35.63-235.72-60.2-304.82-43.51-149,35.99-360.42,74.15-392.11,79.82-.42-35.8-.6-81.64.77-102.18,170.63-12.61,581.73-148.14,750.42-123.01.85.13,1.71.26,2.57.39,163.88,24.83,371.44,96.58,371.44,96.58Z"/>
  <path class="cls-5" d="M836.17,522.18c-3.12,51.77-55.29,91.13-132.41,120.86-121.3-35.63-235.72-60.2-304.82-43.51-149,35.99-360.42,74.15-392.11,79.82-2.65.47-4.04.72-4.04.72v48.03c-1.3-35.13-1.3-132.72,0-150.93,124.93-20.25,548.91-111.6,595.31-122.34,58.98-13.65,117.96-12.87,162.49-.28,43.23,12.22,72.84,35.56,75.58,67.63Z"/>
  <path class="cls-4" d="M1130.58,940.43c-136.04,8.68-824.09-54.44-837.12-270.08,6.21-72.4,128.99-89.39,260.39-68.08,73.89,11.98,442.07,127.18,576.73,170.28,1.45,20.26,1.45,128.8,0,167.88Z"/>
  <g>
    <g>
      <path d="M599.08,491.54h-26.1s-.03-.1-.08-.26c-.27-.91-1.21-3.92-1.89-3.38-14.24,11.34-64.59,3.24-64.59,3.24l-2.43,1.27h-.07s-12.52-.61-12.52-.61h-.12s-13.43-.66-13.43-.66c0,0-3.42-39.86,19.92-49.46.48-.2,3.18-7.15,7.74-15.2,6.36-11.23,16.32-24.64,28.88-24.92,22.6.88,32.75,19.33,39.12,27.26.84,1.04,1.62,1.91,2.35,2.52,1.81,1.52,3.47,3.19,5.01,4.96,9.44,10.88,13.99,25.78,16.17,37.37.2,1.06.38,2.09.54,3.09,1.41,8.65,1.48,14.79,1.48,14.79Z"/>
      <polygon points="602.12 473.28 613.21 555.57 607.48 555.57 589.16 474.26 602.12 473.28"/>
      <polygon points="572.9 491.15 590.46 491.15 564.49 523.9 560.71 555.57 553.42 555.57 557.77 519.3 572.9 491.15"/>
      <polygon points="504.04 491.15 528.17 555.57 522.44 555.57 491.4 491.15 504.04 491.15"/>
      <polygon points="477.86 491.15 491.4 491.15 474.19 521.01 473.67 555.57 466.38 555.57 466.11 522.39 477.86 491.15"/>
      <path d="M579.55,482.31l1.01-46.24c7.38,5.22,13.46,3.61,15.54-1.42,4.94-11.92-5.57-28.63,1.01-42.12,3.62-7.42,9.84-13.28,18.51-17.43l6.96,15.63c-5.18,2.48-8.77,5.7-10.65,9.57-3.24,6.64,1.79,24.1,3.73,34.13,1.5,7.75,1.47,18.41-7.02,31.33-9.69,14.75-21.12,14.51-29.09,16.55Z"/>
      <path d="M604,393.99c0,7.9-3.82,5.53,5.64,12.08,6.52,4.51,17.15-1.17,24.07-1.01,7.04.16,14.06,5.02,11.96-11.07-1.27-9.72-13.05-8.76-23.98-12-14.34-4.25-17.68,4.1-17.68,12Z"/>
    </g>
    <path class="cls-1" d="M573.53,428.81v19.56c0,18.78-15.22,34-34,34s-34-15.22-34-34v-21.9c6.36-11.23,16.32-24.64,28.88-24.92,22.6.88,32.75,19.33,39.12,27.26Z"/>
  </g>
  <g>
    <g>
      <path d="M436.44,484.54h-26.1s-.03-.1-.08-.26c-.27-.91-1.21-3.92-1.89-3.38-14.24,11.34-64.59,3.24-64.59,3.24l-2.43,1.27h-.07s-12.52-.61-12.52-.61h-.12s-13.43-.66-13.43-.66c0,0-3.42-39.86,19.92-49.46.48-.2,3.18-7.15,7.74-15.2,6.36-11.23,16.32-24.64,28.88-24.92,22.6.88,32.75,19.33,39.12,27.26.84,1.04,1.62,1.91,2.35,2.52,1.81,1.52,3.47,3.19,5.01,4.96,9.44,10.88,13.99,25.78,16.17,37.37.2,1.06.38,2.09.54,3.09,1.41,8.65,1.48,14.79,1.48,14.79Z"/>
      <polygon points="439.48 466.28 430.58 548.57 424.85 548.57 426.52 467.26 439.48 466.28"/>
      <polygon points="410.26 484.15 427.82 484.15 430.6 514.01 408.08 548.57 400.78 548.57 422.5 513.36 410.26 484.15"/>
      <polygon points="341.4 484.15 350.74 513.37 335.54 548.57 329.81 548.57 341.24 513.39 328.77 484.15 341.4 484.15"/>
      <polygon points="315.22 484.15 328.77 484.15 323.56 514.01 323.04 548.57 315.75 548.57 315.22 484.15"/>
      <path d="M416.91,475.31l1.01-46.24c7.38,5.22,13.46,3.61,15.54-1.42,4.94-11.92-5.57-28.63,1.01-42.12,3.62-7.42,9.84-13.28,18.51-17.43l6.96,15.63c-5.18,2.48-8.77,5.7-10.65,9.57-3.24,6.64,1.79,24.1,3.73,34.13,1.5,7.75,1.47,18.41-7.02,31.33-9.69,14.75-21.12,14.51-29.09,16.55Z"/>
      <path d="M441.36,386.99c0,7.9-3.82,5.53,5.64,12.08,6.52,4.51,17.15-1.17,24.07-1.01,7.04.16,14.06,5.02,11.96-11.07-1.27-9.72-13.05-8.76-23.98-12-14.34-4.25-17.68,4.1-17.68,12Z"/>
    </g>
    <path class="cls-3" d="M410.89,421.81v19.56c0,18.78-15.22,34-34,34s-34-15.22-34-34v-21.9c6.36-11.23,16.32-24.64,28.88-24.92,22.6.88,32.75,19.33,39.12,27.26Z"/>
  </g>
  <g>
    <g>
      <path d="M256.87,516.46h-26.1s-.03-.1-.08-.26c-.27-.91-1.21-3.92-1.89-3.38-14.24,11.34-64.59,3.24-64.59,3.24l-2.43,1.27h-.07s-12.52-.61-12.52-.61h-.12s-13.43-.66-13.43-.66c0,0-3.42-39.86,19.92-49.46.48-.2,3.18-7.15,7.74-15.2,6.36-11.23,16.32-24.64,28.88-24.92,22.6.88,32.75,19.33,39.12,27.26.84,1.04,1.62,1.91,2.35,2.52,1.81,1.52,3.47,3.19,5.01,4.96,9.44,10.88,13.99,25.78,16.17,37.37.2,1.06.38,2.09.54,3.09,1.41,8.65,1.48,14.79,1.48,14.79Z"/>
      <polygon points="259.91 498.2 263 580.49 257.27 580.49 246.94 499.18 259.91 498.2"/>
      <polygon points="230.69 516.06 248.24 516.06 227.02 545.93 218.5 580.49 211.21 580.49 218.91 545.85 230.69 516.06"/>
      <polygon points="161.83 516.06 158.99 547.24 166.96 580.49 161.23 580.49 149.68 546.48 149.19 516.06 161.83 516.06"/>
      <polygon points="135.65 516.06 149.19 516.06 133.98 545.93 143.46 580.49 136.17 580.49 125.88 544.98 135.65 516.06"/>
      <path d="M237.34,507.23l1.01-46.24c7.38,5.22,13.46,3.61,15.54-1.42,4.94-11.92-5.57-28.63,1.01-42.12,3.62-7.42,9.84-13.28,18.51-17.43l6.96,15.63c-5.18,2.48-8.77,5.7-10.65,9.57-3.24,6.64,1.79,24.1,3.73,34.13,1.5,7.75,1.47,18.41-7.02,31.33-9.69,14.75-21.12,14.51-29.09,16.55Z"/>
      <path d="M261.79,418.91c0,7.9-3.82,5.53,5.64,12.08,6.52,4.51,17.15-1.17,24.07-1.01,7.04.16,14.06,5.02,11.96-11.07-1.27-9.72-13.05-8.76-23.98-12-14.34-4.25-17.68,4.1-17.68,12Z"/>
    </g>
    <path class="cls-6" d="M231.31,453.73v19.56c0,18.78-15.22,34-34,34s-34-15.22-34-34v-21.9c6.36-11.23,16.32-24.64,28.88-24.92,22.6.88,32.75,19.33,39.12,27.26Z"/>
  </g>
</svg>