<?xml version="1.0" encoding="UTF-8"?>
<svg id="Layer_1" data-name="Layer 1" xmlns="http://www.w3.org/2000/svg" viewBox="0 0 1012.06 733.23">
  <defs>
    <style>
      .cls-1 {
        fill: #f4c951;
      }

      .cls-2 {
        fill: #f26641;
      }

      .cls-3 {
        fill: #f2bc06;
      }
    </style>
  </defs>
  <g>
    <path class="cls-3" d="M158.47,653.42c23.96,6.03,52.32,11.39,84.18,15.95,74.15,10.7,167.38,17.06,268.64,17.06,241.79,0,437.74-36.2,437.74-80.92,0-4.42-1.91-8.76-5.68-13-4.04-3.38-8.34-6.86-12.91-10.42-37.58-29.31-89.15-92.26-110.84-108.1-32.92-23.96-71-59.01-166.4-68.21-9.85-.93-20.1-1.22-30.71-.9-117.32,3.41-278.13,107.74-404.02,140.46-.04.04-.09.04-.13.04-20.32,5.24-39.76,9.45-57.91,12-.67.11-1.29.22-1.91.29v.36c-.18,18.17-.09,68.85-.04,95.39Z"/>
    <path class="cls-1" d="M73.59,605.51c0,17.96,31.51,34.52,84.89,47.91,23.96,6.03,52.32,11.39,84.18,15.95,149.67-10.02,410.32-80.69,480.83-163.87,12.29-14.55,18.81-30.35,17.93-47.48-3.55-33.47-53.2-51.5-118.92-53.12-30.48-.79-64.47,1.97-98.86,8.4-42.69,7.97-249.56,107.3-360.09,143.08-1.06.36-2.09.68-3.11,1-.4.14-.8.25-1.2.4-.22.07-.44.14-.71.25-19.3,6.25-45.26,14.94-69.67,26.25-9.94,6.75-15.26,13.86-15.26,21.23Z"/>
  </g>
  <g>
    <path d="M611.91,184.18c-2.85-21.88-29.38-19.72-54-27.02-2.69-.8-5.19-1.38-7.54-1.8l-6.1-13.69c-19.52,9.34-33.54,22.54-41.68,39.24-14.81,30.38,8.83,68-2.28,94.84-4.62,11.16-17.98,14.83-34.27,3.68,0,0,0,0,0,0-3.46-3.99-7.21-7.74-11.28-11.17-1.64-1.39-3.39-3.33-5.28-5.68-14.35-17.85-37.2-59.38-88.09-61.37-28.28.65-50.71,30.83-65.02,56.12-10.26,18.14-16.34,33.78-17.43,34.23-52.57,21.63-44.86,111.37-44.86,111.37h.08s-.08,0-.08,0l1.17,145.05h16.42l1.17-77.8,11.47-65.8.27.02h0s2.32,143.58,2.32,143.58h12.9l12.95-142.22h.15s5.48-2.84,5.48-2.84c0,0,113.36,18.24,145.42-7.29,1.52-1.21,3.65,5.55,4.25,7.61,0,0,0,0,0,0l1.17,144.73h16.42l1.17-77.8,16.79-54.38-2.72,132.18h12.9l20.01-184.89c5.01-4.44,9.96-10.08,14.72-17.33,19.11-29.09,19.2-53.08,15.81-70.54-3.32-17.11-10.62-43.82-10.79-62.27,14.78,7.06,36.79-4.21,51.42-3.87,15.84.36,31.65,11.31,26.92-24.92Z"/>
    <path class="cls-2" d="M449.48,262.58v44.05c0,42.28-34.27,76.55-76.55,76.55s-76.56-34.27-76.56-76.55v-49.3c14.31-25.29,36.74-55.47,65.02-56.12,50.89,1.99,73.74,43.52,88.09,61.37Z"/>
  </g>
</svg>