<?xml version="1.0" encoding="UTF-8"?>
<svg id="Layer_1" data-name="Layer 1" xmlns="http://www.w3.org/2000/svg" viewBox="0 0 722.93 733.23">
  <defs>
    <style>
      .cls-1 {
        fill: #6161ff;
      }

      .cls-2 {
        fill: #8988ff;
      }

      .cls-3 {
        fill: #3a39ff;
      }

      .cls-4 {
        fill: #ade6ed;
      }
    </style>
  </defs>
  <circle class="cls-4" cx="362.75" cy="259.61" r="202.24"/>
  <g>
    <path class="cls-3" d="M613.13,366.82v264.6c0,10.45-8.47,18.92-18.92,18.92H128.72c-10.45,0-18.92-8.47-18.92-18.92v-264.6c0-6.16,2.64-11.7,6.87-15.55,3.73-3.41,8.72-5.49,14.17-5.49h461.25c5.5,0,10.51,2.11,14.26,5.55,4.17,3.85,6.78,9.36,6.78,15.49Z"/>
    <path class="cls-1" d="M606.35,645.98l-221.29-215.67c-11.59-10.69-29.42-10.8-41.14-.25l-227.25,215.98c3.73,3.41,8.72,5.49,14.17,5.49h461.25c5.5,0,10.51-2.11,14.26-5.55Z"/>
    <path class="cls-2" d="M606.35,351.33l-221.29,194.43c-11.59,10.69-29.42,10.8-41.14.25l-227.25-194.75c3.73-3.41,8.72-5.49,14.17-5.49h461.25c5.5,0,10.51,2.11,14.26,5.55Z"/>
  </g>
</svg>