<?xml version="1.0" encoding="UTF-8"?>
<svg id="Layer_1" data-name="Layer 1" xmlns="http://www.w3.org/2000/svg" viewBox="0 0 239.6 207.69">

    <rect fill="#dcb9fe" x="40.14" y="59.46" width="154.41" height="108.88"/>
    <path fill="#6060ea"
          d="M130.92,102.09h0c9.67,0,17.53,7.85,17.53,17.53v48.72h-35.05v-48.72c0-9.67,7.85-17.53,17.53-17.53Z"/>
    <path fill="#6060ea" d="M61.77,80.42h0c4.27,0,7.74,3.47,7.74,7.74v16.99h-15.47v-16.99c0-4.27,3.47-7.74,7.74-7.74Z"/>
    <path fill="#6060ea" d="M90.03,80.42h0c4.27,0,7.74,3.47,7.74,7.74v16.99h-15.47v-16.99c0-4.27,3.47-7.74,7.74-7.74Z"/>
    <path fill="#6060ea"
          d="M168.19,80.42h0c4.27,0,7.74,3.47,7.74,7.74v16.99h-15.47v-16.99c0-4.27,3.47-7.74,7.74-7.74Z"/>
</svg>