<?xml version="1.0" encoding="UTF-8"?>
<svg id="Layer_1" data-name="Layer 1" xmlns="http://www.w3.org/2000/svg" viewBox="0 0 239.6 207.69">

    <polygon fill="#f4c951"
             points="163.31 59.09 118.78 108.44 143.5 101.59 134.48 94.74 151.75 95.56 168.23 83.51 156.28 79.56 179.36 75.37 196.6 62.77 163.31 59.09"/>
    <polygon fill="#dcb9fe"
             points="176.37 98.21 118.66 112.83 142.66 121.89 139.42 111.03 152.87 121.89 173.3 121.89 165.98 111.64 187.08 121.89 204.44 121.89 176.37 98.21"/>
    <polygon fill="#dcb9fe"
             points="56.12 98.84 114.75 112.3 90.76 121.36 94 110.51 80.54 121.36 60.12 121.36 67.44 111.11 46.33 121.36 28.97 121.36 56.12 98.84"/>
    <polygon fill="#f4c951"
             points="74.82 58.77 116.58 110.05 91.86 103.2 100.88 96.35 83.61 97.17 67.13 85.12 79.08 81.16 56 76.98 41.98 66.73 74.82 58.77"/>
    <polygon fill="#dcb9fe"
             points="108.27 49.87 117.14 58.14 101.23 51.79 105.69 77.57 115.72 89.62 103.12 80.91 118.06 105.93 133.84 80.7 121.6 89.22 130.05 78.38 137.17 50.57 122.46 57.73 130.05 49.75 120.72 24.97 108.27 49.87"/>
    <polygon fill="#dad3b5" points="116.59 116.73 103.12 130.83 130.05 130.83 116.59 116.73"/>
    <polygon fill="#dad3b5" points="116.59 132.8 103.12 146.91 130.05 146.91 116.59 132.8"/>
    <polygon fill="#dad3b5" points="116.59 148.88 103.12 162.99 130.05 162.99 116.59 148.88"/>
    <polygon fill="#dad3b5" points="116.59 164.96 103.12 179.07 130.05 179.07 116.59 164.96"/>
</svg>