<?xml version="1.0" encoding="UTF-8"?>
<svg id="Layer_1" data-name="Layer 1" xmlns="http://www.w3.org/2000/svg" viewBox="0 0 239.6 207.69">

    <path d="M76.89,172.74c-.12,0-.21-.09-.21-.21V43.8c0-.12.09-.21.21-.21s.21.09.21.21v128.73c0,.12-.09.21-.21.21Z"/>
    <rect fill="#f26641" x="51.69" y="103.21" width="141.15" height="10.07"/>
    <polygon fill="#517f44" points="178.63 95.17 178.63 120.75 207.99 107.96 178.63 95.17"/>
    <path fill="#6060ea"
          d="M73.21,181.18c-1.26-12.23,12.03-19.18,21.05-23.38,8.73-4.04,17.15-7.37,24.42-11.74,7.28-4.31,13.19-9.51,16.82-15.87,6.96-12.52,6.74-32.06.09-44.63-8.64-15.21-25.08-20.32-40.9-27.29-9.09-3.96-22.78-10.65-21.48-22.97.4-4.08,6.3-4.5,7.24-.5.69,3.82,2.97,5.7,6.42,7.36,3.5,1.63,7.72,2.92,12.11,4.07,8.8,2.38,18.3,4.72,27.63,9.17,20.01,9.27,31.35,26.56,32.28,48.62,1.32,17.63-4.82,36.79-19.24,47.88-11.64,9.62-27.38,14-40.81,17.86-5.98,1.91-11.96,3.3-16.19,7.33-1.15,1.19-1.83,2.78-2.2,4.59-.95,3.98-6.84,3.62-7.24-.5h0Z"/>
    <polygon fill="#517f44"
             points="66.84 107.96 51.69 95.17 25.16 95.17 35.58 108.24 25.16 120.75 51.69 120.75 66.84 107.96"/>
</svg>