<?xml version="1.0" encoding="UTF-8"?>
<svg id="Layer_1" data-name="Layer 1" xmlns="http://www.w3.org/2000/svg" viewBox="0 0 239.6 207.69">
    <defs>
        <style>
            .cls-1 {
            fill: #ff5b23;
            }

            .cls-2 {
            fill: #dad3b5;
            }

            .cls-3 {
            fill: #f2bc06;
            }

            .cls-4 {
            fill: #ade6ed;
            }
        </style>
    </defs>
    <ellipse cx="93.78" cy="142.97" rx="66.71" ry="34.95"/>
    <path fill="#ff5b23"
          d="M175.71,112.78c-3.89,1.47-8.5,2.77-13.67,3.88-12.04,2.6-27.18,4.15-43.63,4.15-39.27,0-71.09-8.81-71.09-19.69,0-1.07.31-2.13.92-3.16.66-.82,1.35-1.67,2.1-2.53,6.1-7.13,14.48-15.34,18-19.19,5.35-5.83,11.53-14.36,27.02-16.59,1.6-.23,3.26-.3,4.99-.22,19.05.83,45.17,19.1,65.61,27.06,0,0,.01,0,.02,0,3.3,1.28,6.46,2.3,9.4,2.92.11.03.21.05.31.07v.09c.03,4.42.01,16.75,0,23.21Z"/>
    <path fill="#f2bc06"
          d="M189.5,101.12c0,4.37-5.12,8.4-13.79,11.66-3.89,1.47-8.5,2.77-13.67,3.88-24.31-2.44-66.64-12.52-78.09-32.76-2-3.54-3.06-7.38-2.91-11.55.58-8.14,8.64-12.53,19.31-12.92,4.95-.19,10.47.48,16.06,2.04,6.93,1.94,40.53,19,58.48,27.7.17.09.34.17.5.24.06.03.13.06.19.1.04.02.07.03.12.06,3.13,1.52,7.35,3.63,11.31,6.39,1.61,1.64,2.48,3.37,2.48,5.16Z"/>
    <path fill="#f2bc06"
          d="M114.18,128.84c3.3,1.24,7.2,2.35,11.58,3.29,10.2,2.21,23.03,3.52,36.97,3.52,33.28,0,60.24-7.46,60.24-16.68,0-.91-.26-1.81-.78-2.68-.56-.7-1.15-1.41-1.78-2.15-5.17-6.04-12.27-13-15.25-16.26-4.53-4.94-9.77-12.17-22.9-14.06-1.36-.19-2.77-.25-4.23-.19-16.15.7-38.28,16.19-55.6,22.93,0,0-.01,0-.02,0-2.8,1.08-5.47,1.95-7.97,2.47-.09.02-.18.04-.26.06v.07c-.02,3.75-.01,14.19,0,19.67Z"/>
    <path fill="#ff5b23"
          d="M102.5,118.96c0,3.7,4.34,7.12,11.68,9.88,3.3,1.24,7.2,2.35,11.58,3.29,20.6-2.07,56.47-10.61,66.17-27.76,1.69-3,2.59-6.26,2.47-9.79-.49-6.9-7.32-10.62-16.37-10.95-4.2-.16-8.87.41-13.61,1.73-5.87,1.64-34.34,16.1-49.56,23.47-.15.07-.29.14-.43.21-.05.03-.11.05-.16.08-.03.01-.06.03-.1.05-2.66,1.29-6.23,3.08-9.59,5.41-1.37,1.39-2.1,2.86-2.1,4.38Z"/>
    <g>
        <g>
            <path fill="#ade6ed"
                  d="M146.53,134.9c3.4-9.39-1.38-41.98-1.38-41.98-3.52,3.08-27.71,14.49-36.03,15.13,4.29,5.5,7.79,10.15,9.85,12.59,5.7,6.73,12.95,14.32,19.15,17.79,3.91,2.18,6.87.68,8.4-3.53Z"/>
            <polygon fill="#ade6ed" points="128.09 91.2 119.85 94.67 126.81 105.99 131.3 104.1 128.09 91.2"/>
        </g>
        <path d="M109.1,19.13h0c2.47,0,4.47,2,4.47,4.47v72.34h-8.94V23.6c0-2.47,2-4.47,4.47-4.47Z"
              transform="translate(-13.76 46.73) rotate(-22.78)"/>
        <polygon points="143.13 139.1 131.45 111.29 131.84 111.13 143.52 138.94 143.13 139.1"/>
    </g>
    <g>
        <path fill="#ff5b23"
              d="M186.55,151.48c-2.37.89-5.17,1.69-8.33,2.36-7.33,1.59-16.56,2.53-26.57,2.53-23.92,0-43.3-5.36-43.3-11.99,0-.65.19-1.3.56-1.93.4-.5.83-1.02,1.28-1.54,3.72-4.34,8.82-9.34,10.96-11.69,3.26-3.55,7.02-8.74,16.46-10.11.97-.14,1.99-.18,3.04-.13,11.6.51,27.51,11.63,39.96,16.48,0,0,0,0,.01,0,2.01.78,3.93,1.4,5.73,1.78.07.02.13.03.19.04v.05c.02,2.69,0,10.2,0,14.13Z"/>
        <path fill="#f2bc06"
              d="M194.94,144.38c0,2.66-3.12,5.11-8.4,7.1-2.37.89-5.17,1.69-8.33,2.36-14.8-1.48-40.59-7.63-47.56-19.95-1.22-2.16-1.86-4.5-1.77-7.04.35-4.96,5.26-7.63,11.76-7.87,3.02-.12,6.38.29,9.78,1.25,4.22,1.18,24.68,11.57,35.62,16.87.11.05.21.1.31.15.04.02.08.04.12.06.02.01.04.02.07.04,1.91.93,4.48,2.21,6.89,3.89.98,1,1.51,2.05,1.51,3.15Z"/>
    </g>
    <path fill="#dad3b5"
          d="M57.64,91.21l7.25,8.67c1.43,1.71,1.42,4.19-.02,5.89l-5.81,6.88c-1.26,1.49-3.34,2.02-5.16,1.31l-7.4-2.89c-.81-.31-1.51-.85-2.02-1.55l-5.28-7.17-3.08-3.96c-1.41-1.8-1.26-4.37.33-6.01l1.4-1.44c.86-.88,2.04-1.38,3.28-1.38h13c1.36,0,2.64.6,3.51,1.64Z"/>
    <path fill="#dad3b5"
          d="M45.72,111.81l2.89,2.66c1.87,1.73,2.45,4.45,1.44,6.79l-1.08,2.5c-.95,2.2-3.12,3.63-5.52,3.63h-2.79c-.82,0-1.64-.17-2.39-.5l-6.14-2.67c-2.19-.95-3.61-3.12-3.61-5.51h0c0-2.32,1.34-4.43,3.43-5.43l.52-.25c.21-.1.42-.18.64-.26l6.59-2.25c2.09-.71,4.39-.22,6.01,1.27Z"/>
</svg>